<svg xmlns="http://www.w3.org/2000/svg" viewBox="0 0 180 57" alt="Private Prep Logo" class="full-logo" style="width:200px;fill:#274548"><title>Private Prep Logo</title><path d="M85.91,28.88a4.4,4.4,0,0,0,1.57,2.68,4.86,4.86,0,0,0,5.28.49,4.51,4.51,0,0,0,1.64-1.61h2.83a7.68,7.68,0,0,1-2.71,3.37,7.06,7.06,0,0,1-4,1.19,7.54,7.54,0,0,1-2.8-.51,7.27,7.27,0,0,1-2.36-1.57,7.83,7.83,0,0,1-1.54-2.28l-.16-.47-.25-.85-.1-.64,0-.7a7.5,7.5,0,0,1,.11-1.34,5.89,5.89,0,0,1,.36-1.26,7.93,7.93,0,0,1,.63-1.18,7.53,7.53,0,0,1,.89-1.1,6.67,6.67,0,0,1,2.34-1.61,7.51,7.51,0,0,1,2.86-.56,7.27,7.27,0,0,1,6,3.1l.25.41L97,25a4.21,4.21,0,0,1,.19.47c0,.15.11.34.18.58a7.31,7.31,0,0,1,.23,1.15,11.2,11.2,0,0,1,.07,1.32v.38Zm9-2.16a4.74,4.74,0,0,0-1.61-2.55,4.4,4.4,0,0,0-2.79-.9,4.47,4.47,0,0,0-2.82.91A5,5,0,0,0,86,26.72Z"></path><path d="M109.74,33.05V39h-2.51V21.33h2.51V23a6.7,6.7,0,0,1,2.16-1.44,6.53,6.53,0,0,1,2.54-.49,7.29,7.29,0,0,1,5.24,2,6.62,6.62,0,0,1,2.11,5,6.93,6.93,0,0,1-.5,2.64,7,7,0,0,1-1.54,2.25,6.73,6.73,0,0,1-2.3,1.55,7.6,7.6,0,0,1-2.84.51,7.13,7.13,0,0,1-2.64-.49,7.22,7.22,0,0,1-2.23-1.46m-.07-5.15a4.58,4.58,0,0,0,1.39,3.36,4.53,4.53,0,0,0,3.32,1.4,4.75,4.75,0,0,0,3.38-1.34,4.3,4.3,0,0,0,1.41-3.25,4.55,4.55,0,0,0-1.4-3.38,4.66,4.66,0,0,0-3.41-1.37,4.54,4.54,0,0,0-3.24,1.39,4.3,4.3,0,0,0-1.45,3.19"></path><path d="M133.45,28.88A4.4,4.4,0,0,0,135,31.56a4.86,4.86,0,0,0,5.28.49,4.51,4.51,0,0,0,1.64-1.61h2.83a7.68,7.68,0,0,1-2.71,3.37A7.06,7.06,0,0,1,138,35a7.54,7.54,0,0,1-2.8-.51,7.27,7.27,0,0,1-2.36-1.57,7.83,7.83,0,0,1-1.54-2.28l-.16-.47-.24-.85-.11-.64,0-.7a7.5,7.5,0,0,1,.11-1.34,6.53,6.53,0,0,1,.36-1.26,7.93,7.93,0,0,1,.63-1.18,7.53,7.53,0,0,1,.89-1.1,6.67,6.67,0,0,1,2.34-1.61,7.51,7.51,0,0,1,2.86-.56,7.27,7.27,0,0,1,6,3.1l.26.41.26.54a4.21,4.21,0,0,1,.19.47c.05.15.11.34.18.58a7.31,7.31,0,0,1,.23,1.15,11.2,11.2,0,0,1,.07,1.32v.38Zm9-2.16a4.74,4.74,0,0,0-1.61-2.55,4.4,4.4,0,0,0-2.79-.9,4.47,4.47,0,0,0-2.82.91,5,5,0,0,0-1.71,2.54Z"></path><path d="M150,33.05V39H147.5V21.33H150V23a6.77,6.77,0,0,1,2.15-1.44,6.62,6.62,0,0,1,2.55-.49,7.29,7.29,0,0,1,5.24,2,6.65,6.65,0,0,1,2.11,5,6.75,6.75,0,0,1-.51,2.64A6.82,6.82,0,0,1,160,32.94a6.73,6.73,0,0,1-2.3,1.55,7.6,7.6,0,0,1-2.84.51,7.13,7.13,0,0,1-2.64-.49A7.22,7.22,0,0,1,150,33.05m-.07-5.15a4.58,4.58,0,0,0,1.39,3.36,4.51,4.51,0,0,0,3.32,1.4A4.75,4.75,0,0,0,158,31.32a4.3,4.3,0,0,0,1.41-3.25,4.55,4.55,0,0,0-1.4-3.38,4.67,4.67,0,0,0-3.42-1.37,4.57,4.57,0,0,0-3.24,1.39,4.32,4.32,0,0,0-1.44,3.19"></path><path d="M20.46,33.05V39H17.94V21.33h2.52V23A6.52,6.52,0,0,1,25.16,21a7.32,7.32,0,0,1,5.24,2,6.64,6.64,0,0,1,2.1,5,6.93,6.93,0,0,1-.5,2.64,7.23,7.23,0,0,1-3.84,3.8,7.56,7.56,0,0,1-2.84.51,7.11,7.11,0,0,1-2.63-.49,7.22,7.22,0,0,1-2.23-1.46m-.08-5.15a4.61,4.61,0,0,0,1.39,3.36,4.55,4.55,0,0,0,3.33,1.4,4.71,4.71,0,0,0,3.37-1.34,4.28,4.28,0,0,0,1.42-3.25,4.55,4.55,0,0,0-1.4-3.38,4.67,4.67,0,0,0-3.42-1.37,4.57,4.57,0,0,0-3.24,1.39,4.3,4.3,0,0,0-1.45,3.19"></path><path d="M42.3,21.33h2.49V34.66H42.3Zm3-2.73A1.65,1.65,0,1,1,43.64,17a1.61,1.61,0,0,1,1.65,1.58"></path><polygon points="53.55 34.66 51.66 34.66 46.35 21.33 49.05 21.33 52.73 31.05 56.5 21.33 59.16 21.33 53.55 34.66"></polygon><path d="M71.43,34.66V33a6.55,6.55,0,0,1-2.15,1.42,6.41,6.41,0,0,1-2.54.52,7.29,7.29,0,0,1-5.2-2,7,7,0,0,1-1.6-7.69,7,7,0,0,1,1.49-2.21l.18-.2.31-.26.58-.43a6.5,6.5,0,0,1,1.22-.66A7.54,7.54,0,0,1,66.59,21a7,7,0,0,1,2.64.48,6.85,6.85,0,0,1,2.2,1.47V21.33H74V34.66ZM62,27.9a4.52,4.52,0,0,0,1.4,3.39,4.75,4.75,0,0,0,3.44,1.37,4.6,4.6,0,0,0,3.24-1.38,4.32,4.32,0,0,0,1.44-3.21,4.8,4.8,0,0,0-4.74-4.75,4.72,4.72,0,0,0-3.39,1.33A4.32,4.32,0,0,0,62,27.9"></path><polygon points="77.74 17.02 77.74 21.33 75.77 21.33 75.77 23.51 77.74 23.51 77.74 34.66 80.23 34.66 80.23 23.51 82.21 23.51 82.21 21.33 80.23 21.33 80.23 17.02 77.74 17.02"></polygon><path d="M38.55,21.78a4,4,0,0,0-1.24,1.06V21.33H34.82V34.66h2.49V26.6A3.31,3.31,0,0,1,38,24.8a2.87,2.87,0,0,1,1.06-.71,3.63,3.63,0,0,1,1.37-.25V21.33a3.89,3.89,0,0,0-1.87.45"></path><path d="M127.85,21.78a4,4,0,0,0-1.24,1.06V21.33h-2.49V34.66h2.49v-8a.28.28,0,0,1,0-.09,3.23,3.23,0,0,1,.67-1.8,3,3,0,0,1,1.06-.71,3.63,3.63,0,0,1,1.37-.25V21.33a3.89,3.89,0,0,0-1.87.45"></path></svg>
